<?xml version="1.0" encoding="UTF-8"?>
<svg version="1.1" viewBox="0 0 2000 2000" width="1280" height="1280" xmlns="http://www.w3.org/2000/svg">
<path transform="translate(1521,911)" d="m0 0h84l-3 2-22 3-52 12-63 14-47 12-48 14-35 10-32 10-43 15-21 8-2 2 12 22 16 27 15 26 13 23 17 28 10 18 12 21 13 23 15 26 14 25 14 24 13 23 12 20 17 29 14 24 12 22 13 23 11 20 16 27 8 14 1 6-7 3-91 1h-255l-24-1-6-3-7-8-12-20-15-26-32-56-30-54-30-52-13-24-12-21-10-17-9-12-2-2-4 1-7 10-15 25-12 21-14 24-15 26-14 24-12 21-26 46-14 25-15 26-8 13-10 17-8 11-3 3-7 2-21 1h-321l-32-1-3-2 2-6 10-14 10-12 8-10 14-17 9-10 12-14 12-13 7-7 7-8 27-27 6-5 15-15 8-7 14-12 10-9 14-11 10-9 10-8 13-11 13-10 15-12 20-15 18-14 14-10 12-9 23-16 27-18 17-11 16-10 21-13 15-9 17-10 23-13 22-12 27-14 15-8 28-13 26-12 45-19 20-8 27-11 36-13 40-13 48-13 38-9 50-10 46-8 42-6 49-5 39-3 20-1z"/>
<path transform="translate(947,516)" d="m0 0 3 1 17 29 10 18 14 24 17 29 14 24 15 27 16 28 28 48 12 20 30 52 9 15 13 22 6 11v4l-9 3-65 12-57 13-64 16-36 10-48 16-42 15-55 22-30 13-27 12-24 11-15 8-16 8-24 13-27 16-19 12-14 9-20 14-19 14-13 10-11 9-15 13-13 12-10 9v-3l7-9 11-12 15-16 12-13 22-22 8-7 10-10h2v-2l8-7 13-12 11-9 10-9 14-11 15-12 26-20 16-12 7-5 7-13 9-16 11-19 17-29 8-14 14-24 15-26 9-15 14-24 16-27 8-13 16-28 14-24 26-46 12-21 14-24 11-19 15-26 16-28 9-14z"/>
</svg>
